<?xml version="1.0" encoding="UTF-8" standalone="no"?>
<!-- Created with Inkscape (http://www.inkscape.org/) -->

<svg
   xmlns:dc="http://purl.org/dc/elements/1.1/"
   xmlns:cc="http://creativecommons.org/ns#"
   xmlns:rdf="http://www.w3.org/1999/02/22-rdf-syntax-ns#"
   xmlns:svg="http://www.w3.org/2000/svg"
   xmlns="http://www.w3.org/2000/svg"
   xmlns:xlink="http://www.w3.org/1999/xlink"
   xmlns:sodipodi="http://sodipodi.sourceforge.net/DTD/sodipodi-0.dtd"
   xmlns:inkscape="http://www.inkscape.org/namespaces/inkscape"
   width="210mm"
   height="297mm"
   viewBox="0 0 210 297"
   version="1.1"
   id="svg8"
   inkscape:version="0.92.1 r15371"
   sodipodi:docname="archi_perso.svg">
  <defs
     id="defs2" />
  <sodipodi:namedview
     id="base"
     pagecolor="#ffffff"
     bordercolor="#666666"
     borderopacity="1.0"
     inkscape:pageopacity="0.0"
     inkscape:pageshadow="2"
     inkscape:zoom="0.7"
     inkscape:cx="48.400782"
     inkscape:cy="698.67244"
     inkscape:document-units="mm"
     inkscape:current-layer="layer1"
     showgrid="false"
     inkscape:object-paths="true"
     inkscape:window-width="1920"
     inkscape:window-height="1017"
     inkscape:window-x="-8"
     inkscape:window-y="-8"
     inkscape:window-maximized="1" />
  <metadata
     id="metadata5">
    <rdf:RDF>
      <cc:Work
         rdf:about="">
        <dc:format>image/svg+xml</dc:format>
        <dc:type
           rdf:resource="http://purl.org/dc/dcmitype/StillImage" />
        <dc:title></dc:title>
      </cc:Work>
    </rdf:RDF>
  </metadata>
  <g
     inkscape:label="Calque 1"
     inkscape:groupmode="layer"
     id="layer1">
    <g
       id="g239"
       transform="matrix(0.13574864,0,0,0.13574864,14.208428,2.5208079)">
      <g
         id="g174">
        <path
           id="path154"
           d="m 189.485,81.033 c 12.647,0 22.9,10.249 22.9,22.9 0,12.645 -10.253,22.898 -22.9,22.898 -12.649,0 -22.898,-10.253 -22.898,-22.898 -10e-4,-12.651 10.248,-22.9 22.898,-22.9 z"
           inkscape:connector-curvature="0" />
        <path
           id="path156"
           d="m 9.161,338.548 c 0,4.328 3.519,7.851 7.851,7.851 h 126.17 l 20.075,-15.701 h 65.716 V 71.634 c 0,-4.332 -3.519,-7.851 -7.851,-7.851 H 71.588 C 63.994,56.12 53.484,51.356 41.873,51.356 18.787,51.356 0,70.143 0,93.222 c 0,9.79 3.514,18.685 9.161,25.822 z M 41.679,123.313 c -16.729,0 -30.288,-13.56 -30.288,-30.286 0,-14.132 9.718,-25.902 22.812,-29.244 2.403,-0.613 4.883,-1.042 7.476,-1.042 2.591,0 5.069,0.429 7.474,1.042 13.094,3.342 22.811,15.112 22.811,29.244 -0.001,16.727 -13.558,30.286 -30.285,30.286 z M 189.485,73.17 c 16.956,0 30.751,13.795 30.751,30.751 0,16.958 -13.795,30.753 -30.751,30.753 -16.957,0 -30.761,-13.795 -30.761,-30.753 0,-16.955 13.804,-30.751 30.761,-30.751 z m 24.714,151.547 c 0,52.033 -42.18,94.21 -94.212,94.21 -52.035,0 -94.221,-42.178 -94.221,-94.21 0,-52.032 42.178,-94.212 94.212,-94.212 52.033,0 94.221,42.18 94.221,94.212 z"
           inkscape:connector-curvature="0" />
        <path
           id="path158"
           d="M 354.579,369.946 H 134.768 c -4.332,0 -8.292,3.49 -8.824,7.79 l -5.903,47.22 c -0.533,4.309 2.544,7.795 6.876,7.795 h 235.512 c 4.328,0 7.414,-3.486 6.877,-7.791 l -5.902,-47.215 c -0.537,-4.308 -4.493,-7.799 -8.825,-7.799 z M 166.167,417.05 h -23.549 v -7.851 h 23.549 z m 82.169,10.31 c -13.814,0 -25.011,-11.208 -25.011,-25.014 0,-13.813 11.205,-25.015 25.011,-25.015 8.013,0 15.081,3.848 19.65,9.714 l -8.159,2.897 c -4.092,1.446 -6.224,5.931 -4.781,10.026 1.15,3.21 4.168,5.229 7.406,5.229 0.865,0 1.747,-0.147 2.62,-0.452 l 8.22,-2.93 c 0,0.185 0.06,0.353 0.06,0.537 0,13.816 -11.192,25.008 -25.016,25.008 z"
           inkscape:connector-curvature="0" />
        <path
           id="path160"
           d="m 294.62,126.832 c 12.632,0 22.906,-10.277 22.906,-22.898 0,-12.628 -10.274,-22.9 -22.906,-22.9 -12.619,0 -22.895,10.272 -22.895,22.9 0,12.621 10.275,22.898 22.895,22.898 z"
           inkscape:connector-curvature="0" />
        <path
           id="path162"
           d="m 442.242,51.356 c -11.622,0 -22.125,4.765 -29.724,12.427 H 260.373 c -4.332,0 -7.851,3.519 -7.851,7.851 v 259.063 h 74.049 l 20.081,15.701 h 117.831 c 4.332,0 7.851,-3.522 7.851,-7.851 V 122.205 c 7.253,-7.536 11.773,-17.725 11.773,-28.983 0,-23.087 -18.787,-41.866 -41.865,-41.866 z m 30.091,45.508 c -1.9,14.892 -14.483,26.449 -29.908,26.449 -16.727,0 -30.279,-13.56 -30.279,-30.286 0,-14.132 9.718,-25.902 22.814,-29.244 2.4,-0.613 4.877,-1.042 7.465,-1.042 2.594,0 5.078,0.42 7.482,1.042 11.87,3.029 20.839,13.026 22.418,25.411 0.168,1.272 0.384,2.522 0.384,3.841 0,1.319 -0.215,2.557 -0.376,3.829 z M 294.62,73.17 c 16.956,0 30.757,13.795 30.757,30.751 0,16.958 -13.801,30.753 -30.757,30.753 -16.951,0 -30.745,-13.795 -30.745,-30.753 0,-16.955 13.793,-30.751 30.745,-30.751 z m 68.719,245.758 c -52.037,0 -94.211,-42.178 -94.211,-94.21 0,-52.032 42.174,-94.212 94.211,-94.212 52.032,0 94.223,42.18 94.223,94.212 0,52.032 -42.19,94.21 -94.223,94.21 z"
           inkscape:connector-curvature="0" />
        <polygon
           id="polygon164"
           points="228.972,338.548 165.965,338.548 155.923,346.398 135.86,362.096 353.978,362.096 333.909,346.398 323.875,338.548 252.522,338.548 " />
        <circle
           id="circle166"
           r="13.951"
           cy="93.254997"
           cx="43.146" />
        <path
           id="path168"
           d="m 443.516,79.304 c 7.702,0 13.953,6.246 13.953,13.95 0,7.705 -6.251,13.952 -13.953,13.952 -7.707,0 -13.954,-6.248 -13.954,-13.952 0,-7.705 6.247,-13.95 13.954,-13.95 z"
           inkscape:connector-curvature="0" />
        <path
           id="path170"
           d="m 119.978,302.337 c 42.872,0 77.622,-34.752 77.622,-77.62 0,-42.872 -34.75,-77.628 -77.622,-77.628 -42.873,0 -77.626,34.756 -77.626,77.628 0,42.868 34.753,77.62 77.626,77.62 z m 0,-115.382 c 20.857,0 37.758,16.909 37.758,37.762 0,20.851 -16.91,37.753 -37.758,37.753 -20.853,0 -37.76,-16.902 -37.76,-37.753 0,-20.853 16.907,-37.762 37.76,-37.762 z"
           inkscape:connector-curvature="0" />
        <path
           id="path172"
           d="m 363.339,147.089 c -42.867,0 -77.628,34.756 -77.628,77.628 0,42.868 34.761,77.62 77.628,77.62 42.871,0 77.624,-34.752 77.624,-77.62 0,-42.871 -34.753,-77.628 -77.624,-77.628 z m 0,115.382 c -20.859,0 -37.762,-16.902 -37.762,-37.753 0,-20.853 16.911,-37.762 37.762,-37.762 20.854,0 37.758,16.909 37.758,37.762 0,20.85 -16.903,37.753 -37.758,37.753 z"
           inkscape:connector-curvature="0" />
      </g>
      <g
         id="g176" />
      <g
         id="g178" />
      <g
         id="g180" />
      <g
         id="g182" />
      <g
         id="g184" />
      <g
         id="g186" />
      <g
         id="g188" />
      <g
         id="g190" />
      <g
         id="g192" />
      <g
         id="g194" />
      <g
         id="g196" />
      <g
         id="g198" />
      <g
         id="g200" />
      <g
         id="g202" />
      <g
         id="g204" />
    </g>
    <g
       id="g4014"
       transform="matrix(0.10140717,0,0,0.10853454,69.780007,139.96507)">
      <g
         id="g3921">
        <g
           id="g3919">
          <path
             id="path3917"
             d="M 436.736,151.829 C 423.584,124.853 400.992,109.749 379.136,95.125 362.848,84.213 347.488,73.909 336.608,59.157 l -2.016,-2.72 c -6.4,-8.608 -13.696,-18.368 -14.816,-26.56 -0.096,-0.672 -0.48,-1.216 -0.672,-1.888 -0.288,-1.12 -0.608,-2.176 -1.12,-3.2 -0.384,-0.832 -0.928,-1.568 -1.504,-2.336 -0.672,-0.864 -1.312,-1.696 -2.144,-2.4 -0.8,-0.704 -1.664,-1.184 -2.56,-1.728 -0.832,-0.48 -1.6,-0.928 -2.528,-1.248 -1.12,-0.416 -2.272,-0.576 -3.488,-0.704 -0.608,-0.032 -1.12,-0.32 -1.76,-0.32 -0.384,0 -0.704,0.192 -1.056,0.224 -0.384,0.032 -0.736,-0.128 -1.12,-0.064 -0.704,0.096 -1.248,0.48 -1.92,0.672 -1.088,0.288 -2.112,0.576 -3.072,1.088 -0.896,0.448 -1.664,1.024 -2.432,1.664 -0.832,0.64 -1.632,1.28 -2.304,2.08 -0.672,0.768 -1.152,1.6 -1.664,2.464 -0.512,0.896 -0.992,1.76 -1.344,2.752 -0.352,0.992 -0.48,2.016 -0.608,3.104 -0.16,0.64 -0.48,1.28 -0.48,2.016 v 285.12 c -13.408,-8.128 -29.92,-13.12 -48,-13.12 -44.128,0 -80,28.704 -80,64 0,35.296 35.872,64 80,64 44.128,0 80,-28.704 80,-64 V 181.557 c 24.032,9.184 63.36,32.576 74.176,87.2 -2.016,2.976 -3.936,6.208 -6.176,8.736 -5.856,6.624 -5.184,16.736 1.44,22.56 3.04,2.688 6.816,4 10.56,4 4.448,0 8.832,-1.856 12,-5.44 4.256,-4.832 8.064,-10.56 11.712,-16.448 0.416,-0.512 0.736,-0.992 1.088,-1.536 12.928,-21.632 21.504,-48.992 23.136,-76.032 1.056,-17.376 -2.816,-35.616 -11.2,-52.768 z M 240,400.053 c -26.016,0 -48,-14.656 -48,-32 0,-17.344 21.984,-32 48,-32 26.016,0 48,14.656 48,32 0,17.344 -21.984,32 -48,32 z M 416.032,202.581 c -0.448,7.488 -1.6,14.976 -3.232,22.304 C 390.304,179.733 349.504,156.213 320,147.509 V 88.725 c 12.544,13.376 27.104,23.392 41.376,32.928 19.168,12.832 37.28,24.96 46.656,44.192 5.888,12 8.704,25.088 8,36.736 z"
             inkscape:connector-curvature="0" />
        </g>
      </g>
      <g
         id="g3927">
        <g
           id="g3925">
          <path
             id="path3923"
             d="M 208,16.053 H 16 c -8.832,0 -16,7.168 -16,16 0,8.832 7.168,16 16,16 h 192 c 8.832,0 16,-7.168 16,-16 0,-8.832 -7.168,-16 -16,-16 z"
             inkscape:connector-curvature="0" />
        </g>
      </g>
      <g
         id="g3933">
        <g
           id="g3931">
          <path
             id="path3929"
             d="M 208,112.053 H 16 c -8.832,0 -16,7.168 -16,16 0,8.832 7.168,16 16,16 h 192 c 8.832,0 16,-7.168 16,-16 0,-8.832 -7.168,-16 -16,-16 z"
             inkscape:connector-curvature="0" />
        </g>
      </g>
      <g
         id="g3939">
        <g
           id="g3937">
          <path
             id="path3935"
             d="M 112,208.053 H 16 c -8.832,0 -16,7.168 -16,16 0,8.832 7.168,16 16,16 h 96 c 8.832,0 16,-7.168 16,-16 0,-8.832 -7.168,-16 -16,-16 z"
             inkscape:connector-curvature="0" />
        </g>
      </g>
      <g
         id="g3945">
        <g
           id="g3943">
          <path
             id="path3941"
             d="M 112,304.053 H 16 c -8.832,0 -16,7.168 -16,16 0,8.832 7.168,16 16,16 h 96 c 8.832,0 16,-7.168 16,-16 0,-8.832 -7.168,-16 -16,-16 z"
             inkscape:connector-curvature="0" />
        </g>
      </g>
      <g
         id="g3947" />
      <g
         id="g3949" />
      <g
         id="g3951" />
      <g
         id="g3953" />
      <g
         id="g3955" />
      <g
         id="g3957" />
      <g
         id="g3959" />
      <g
         id="g3961" />
      <g
         id="g3963" />
      <g
         id="g3965" />
      <g
         id="g3967" />
      <g
         id="g3969" />
      <g
         id="g3971" />
      <g
         id="g3973" />
      <g
         id="g3975" />
    </g>
    <g
       id="g4074"
       transform="matrix(0.60892705,0,0,0.60892705,141.3459,185.93991)">
      <g
         id="g4018">
        <path
           id="path4016"
           d="m 48.355,17.922 c 3.705,2.323 6.303,6.254 6.776,10.817 1.511,0.706 3.188,1.112 4.966,1.112 6.491,0 11.752,-5.261 11.752,-11.751 0,-6.491 -5.261,-11.752 -11.752,-11.752 -6.429,0.002 -11.644,5.169 -11.742,11.574 z m -7.699,24.062 c 6.491,0 11.752,-5.262 11.752,-11.752 0,-6.49 -5.262,-11.751 -11.752,-11.751 -6.49,0 -11.754,5.262 -11.754,11.752 0,6.49 5.264,11.751 11.754,11.751 z m 4.985,0.801 h -9.972 c -8.297,0 -15.047,6.751 -15.047,15.048 v 12.195 l 0.031,0.191 0.84,0.263 c 7.918,2.474 14.797,3.299 20.459,3.299 11.059,0 17.469,-3.153 17.864,-3.354 l 0.785,-0.397 h 0.084 V 57.833 C 60.688,49.536 53.938,42.785 45.641,42.785 Z M 65.084,30.653 h -9.895 c -0.107,3.959 -1.797,7.524 -4.47,10.088 7.375,2.193 12.771,9.032 12.771,17.11 v 3.758 c 9.77,-0.358 15.4,-3.127 15.771,-3.313 l 0.785,-0.398 H 80.13 V 45.699 c 0,-8.296 -6.75,-15.046 -15.046,-15.046 z m -45.049,-0.8 c 2.299,0 4.438,-0.671 6.25,-1.814 0.576,-3.757 2.59,-7.04 5.467,-9.276 0.012,-0.22 0.033,-0.438 0.033,-0.66 0,-6.491 -5.262,-11.752 -11.75,-11.752 -6.492,0 -11.752,5.261 -11.752,11.752 0,6.488 5.26,11.75 11.752,11.75 z M 30.589,40.741 C 27.929,38.19 26.245,34.644 26.122,30.709 25.755,30.682 25.392,30.653 25.018,30.653 H 15.047 C 6.75,30.653 0,37.403 0,45.699 v 12.197 l 0.031,0.188 0.84,0.265 c 6.352,1.983 12.021,2.897 16.945,3.185 v -3.683 c 0.002,-8.078 5.396,-14.915 12.773,-17.11 z"
           inkscape:connector-curvature="0" />
      </g>
      <g
         id="g4020" />
      <g
         id="g4022" />
      <g
         id="g4024" />
      <g
         id="g4026" />
      <g
         id="g4028" />
      <g
         id="g4030" />
      <g
         id="g4032" />
      <g
         id="g4034" />
      <g
         id="g4036" />
      <g
         id="g4038" />
      <g
         id="g4040" />
      <g
         id="g4042" />
      <g
         id="g4044" />
      <g
         id="g4046" />
      <g
         id="g4048" />
    </g>
    <g
       id="g4134"
       transform="matrix(-0.06545728,0,0,0.05078432,150.27934,171.9902)"
       style="fill:#999999">
      <g
         id="g4078"
         style="fill:#999999">
        <path
           id="path4076"
           d="m 483.058,215.613 -215.5,-177.6 c -4,-3.3 -9.6,-4 -14.3,-1.8 -4.7,2.2 -7.7,7 -7.7,12.2 v 93.6 c -104.6,3.8 -176.5,40.7 -213.9,109.8 -32.2,59.6 -31.9,130.2 -31.6,176.9 0,3.8 0,7.4 0,10.8 0,6.1 4.1,11.5 10.1,13.1 1.1,0.3 2.3,0.4 3.4,0.4 4.8,0 9.3,-2.5 11.7,-6.8 73,-128.7 133.1,-134.9 220.2,-135.2 v 93.3 c 0,5.2 3,10 7.8,12.2 4.8,2.2 10.3,1.5 14.4,-1.8 l 215.4,-178.2 c 3.1,-2.6 4.9,-6.4 4.9,-10.4 0,-4 -1.8,-7.9 -4.9,-10.5 z m -210.5,160 v -78.1 c 0,-3.6 -1.4,-7 -4,-9.5 -2.5,-2.5 -6,-4 -9.5,-4 -54.4,0 -96.1,1.5 -136.6,20.4 -35,16.3 -65.3,44 -95.2,87.5 1.2,-39.7 6.4,-87.1 28.1,-127.2 34.4,-63.6 101,-95.1 203.7,-96 7.4,-0.1 13.4,-6.1 13.4,-13.5 v -78.2 l 180.7,149.1 z"
           inkscape:connector-curvature="0"
           style="fill:#999999" />
      </g>
      <g
         id="g4080"
         style="fill:#999999" />
      <g
         id="g4082"
         style="fill:#999999" />
      <g
         id="g4084"
         style="fill:#999999" />
      <g
         id="g4086"
         style="fill:#999999" />
      <g
         id="g4088"
         style="fill:#999999" />
      <g
         id="g4090"
         style="fill:#999999" />
      <g
         id="g4092"
         style="fill:#999999" />
      <g
         id="g4094"
         style="fill:#999999" />
      <g
         id="g4096"
         style="fill:#999999" />
      <g
         id="g4098"
         style="fill:#999999" />
      <g
         id="g4100"
         style="fill:#999999" />
      <g
         id="g4102"
         style="fill:#999999" />
      <g
         id="g4104"
         style="fill:#999999" />
      <g
         id="g4106"
         style="fill:#999999" />
      <g
         id="g4108"
         style="fill:#999999" />
    </g>
    <g
       style="fill:#999999"
       transform="matrix(-0.00119797,-0.06544632,-0.05800741,0.0010618,147.10049,146.97605)"
       id="g4170">
      <g
         style="fill:#999999"
         id="g4138">
        <path
           style="fill:#999999"
           inkscape:connector-curvature="0"
           d="m 483.058,215.613 -215.5,-177.6 c -4,-3.3 -9.6,-4 -14.3,-1.8 -4.7,2.2 -7.7,7 -7.7,12.2 v 93.6 c -104.6,3.8 -176.5,40.7 -213.9,109.8 -32.2,59.6 -31.9,130.2 -31.6,176.9 0,3.8 0,7.4 0,10.8 0,6.1 4.1,11.5 10.1,13.1 1.1,0.3 2.3,0.4 3.4,0.4 4.8,0 9.3,-2.5 11.7,-6.8 73,-128.7 133.1,-134.9 220.2,-135.2 v 93.3 c 0,5.2 3,10 7.8,12.2 4.8,2.2 10.3,1.5 14.4,-1.8 l 215.4,-178.2 c 3.1,-2.6 4.9,-6.4 4.9,-10.4 0,-4 -1.8,-7.9 -4.9,-10.5 z m -210.5,160 v -78.1 c 0,-3.6 -1.4,-7 -4,-9.5 -2.5,-2.5 -6,-4 -9.5,-4 -54.4,0 -96.1,1.5 -136.6,20.4 -35,16.3 -65.3,44 -95.2,87.5 1.2,-39.7 6.4,-87.1 28.1,-127.2 34.4,-63.6 101,-95.1 203.7,-96 7.4,-0.1 13.4,-6.1 13.4,-13.5 v -78.2 l 180.7,149.1 z"
           id="path4136" />
      </g>
      <g
         style="fill:#999999"
         id="g4140" />
      <g
         style="fill:#999999"
         id="g4142" />
      <g
         style="fill:#999999"
         id="g4144" />
      <g
         style="fill:#999999"
         id="g4146" />
      <g
         style="fill:#999999"
         id="g4148" />
      <g
         style="fill:#999999"
         id="g4150" />
      <g
         style="fill:#999999"
         id="g4152" />
      <g
         style="fill:#999999"
         id="g4154" />
      <g
         style="fill:#999999"
         id="g4156" />
      <g
         style="fill:#999999"
         id="g4158" />
      <g
         style="fill:#999999"
         id="g4160" />
      <g
         style="fill:#999999"
         id="g4162" />
      <g
         style="fill:#999999"
         id="g4164" />
      <g
         style="fill:#999999"
         id="g4166" />
      <g
         style="fill:#999999"
         id="g4168" />
    </g>
    <text
       xml:space="preserve"
       style="font-style:normal;font-weight:normal;font-size:10.58333302px;line-height:1.25;font-family:sans-serif;letter-spacing:0px;word-spacing:0px;fill:#000000;fill-opacity:1;stroke:none;stroke-width:0.26458332"
       x="15.874999"
       y="155.6369"
       id="text4210"><tspan
         sodipodi:role="line"
         id="tspan4208"
         x="15.874999"
         y="155.6369"
         style="stroke-width:0.26458332">Playlist</tspan><tspan
         sodipodi:role="line"
         x="15.874999"
         y="168.86607"
         style="stroke-width:0.26458332"
         id="tspan4212">Shifumix</tspan></text>
    <image
       sodipodi:absref="C:\Users\hhoareau\IdeaProjects\shifumixClient\src\assets\img\icon-dj.png"
       xlink:href="icon-dj.png"
       style="fill:#ff6600"
       width="61.646069"
       height="61.646069"
       preserveAspectRatio="none"
       id="image5706"
       x="109.75986"
       y="49.702362" />
    <g
       style="fill:#999999"
       transform="matrix(-0.06545728,0,0,0.05078432,120.04124,22.689605)"
       id="g5743">
      <g
         style="fill:#999999"
         id="g5711">
        <path
           style="fill:#999999"
           inkscape:connector-curvature="0"
           d="m 483.058,215.613 -215.5,-177.6 c -4,-3.3 -9.6,-4 -14.3,-1.8 -4.7,2.2 -7.7,7 -7.7,12.2 v 93.6 c -104.6,3.8 -176.5,40.7 -213.9,109.8 -32.2,59.6 -31.9,130.2 -31.6,176.9 0,3.8 0,7.4 0,10.8 0,6.1 4.1,11.5 10.1,13.1 1.1,0.3 2.3,0.4 3.4,0.4 4.8,0 9.3,-2.5 11.7,-6.8 73,-128.7 133.1,-134.9 220.2,-135.2 v 93.3 c 0,5.2 3,10 7.8,12.2 4.8,2.2 10.3,1.5 14.4,-1.8 l 215.4,-178.2 c 3.1,-2.6 4.9,-6.4 4.9,-10.4 0,-4 -1.8,-7.9 -4.9,-10.5 z m -210.5,160 v -78.1 c 0,-3.6 -1.4,-7 -4,-9.5 -2.5,-2.5 -6,-4 -9.5,-4 -54.4,0 -96.1,1.5 -136.6,20.4 -35,16.3 -65.3,44 -95.2,87.5 1.2,-39.7 6.4,-87.1 28.1,-127.2 34.4,-63.6 101,-95.1 203.7,-96 7.4,-0.1 13.4,-6.1 13.4,-13.5 v -78.2 l 180.7,149.1 z"
           id="path5709" />
      </g>
      <g
         style="fill:#999999"
         id="g5713" />
      <g
         style="fill:#999999"
         id="g5715" />
      <g
         style="fill:#999999"
         id="g5717" />
      <g
         style="fill:#999999"
         id="g5719" />
      <g
         style="fill:#999999"
         id="g5721" />
      <g
         style="fill:#999999"
         id="g5723" />
      <g
         style="fill:#999999"
         id="g5725" />
      <g
         style="fill:#999999"
         id="g5727" />
      <g
         style="fill:#999999"
         id="g5729" />
      <g
         style="fill:#999999"
         id="g5731" />
      <g
         style="fill:#999999"
         id="g5733" />
      <g
         style="fill:#999999"
         id="g5735" />
      <g
         style="fill:#999999"
         id="g5737" />
      <g
         style="fill:#999999"
         id="g5739" />
      <g
         style="fill:#999999"
         id="g5741" />
    </g>
  </g>
</svg>
