<?xml version="1.0" encoding="UTF-8" standalone="no"?>
<!-- Created with Inkscape (http://www.inkscape.org/) -->

<svg
   xmlns:dc="http://purl.org/dc/elements/1.1/"
   xmlns:cc="http://creativecommons.org/ns#"
   xmlns:rdf="http://www.w3.org/1999/02/22-rdf-syntax-ns#"
   xmlns:svg="http://www.w3.org/2000/svg"
   xmlns="http://www.w3.org/2000/svg"
   xmlns:sodipodi="http://sodipodi.sourceforge.net/DTD/sodipodi-0.dtd"
   xmlns:inkscape="http://www.inkscape.org/namespaces/inkscape"
   width="66.686958mm"
   height="11.08837mm"
   viewBox="0 0 66.686958 11.08837"
   version="1.1"
   id="svg8"
   inkscape:version="0.92.1 r15371"
   sodipodi:docname="button_signin_email.svg">
  <defs
     id="defs2" />
  <sodipodi:namedview
     id="base"
     pagecolor="#ffffff"
     bordercolor="#666666"
     borderopacity="1.0"
     inkscape:pageopacity="0.0"
     inkscape:pageshadow="2"
     inkscape:zoom="3.959798"
     inkscape:cx="126.44978"
     inkscape:cy="0.9523647"
     inkscape:document-units="mm"
     inkscape:current-layer="layer1"
     showgrid="false"
     inkscape:window-width="1920"
     inkscape:window-height="1017"
     inkscape:window-x="-8"
     inkscape:window-y="-8"
     inkscape:window-maximized="1"
     fit-margin-top="0"
     fit-margin-left="0"
     fit-margin-right="0"
     fit-margin-bottom="0" />
  <metadata
     id="metadata5">
    <rdf:RDF>
      <cc:Work
         rdf:about="">
        <dc:format>image/svg+xml</dc:format>
        <dc:type
           rdf:resource="http://purl.org/dc/dcmitype/StillImage" />
        <dc:title></dc:title>
      </cc:Work>
    </rdf:RDF>
  </metadata>
  <g
     inkscape:label="Calque 1"
     inkscape:groupmode="layer"
     id="layer1"
     transform="translate(-43.832203,-71.791756)">
    <rect
       ry="1.1021305"
       y="71.969589"
       x="44.331142"
       height="10.910537"
       width="66.188019"
       id="rect6214"
       style="opacity:1;fill:#cccccc;fill-opacity:1;stroke:none;stroke-width:0.08661616;stroke-miterlimit:4;stroke-dasharray:none;stroke-dashoffset:0;stroke-opacity:1" />
    <rect
       style="opacity:1;fill:#f2f2f2;fill-opacity:1;stroke:none;stroke-width:0.04264015;stroke-miterlimit:4;stroke-dasharray:none;stroke-dashoffset:0;stroke-opacity:1"
       id="rect4485"
       width="66.145836"
       height="10.583333"
       x="43.832203"
       y="71.791756"
       ry="1.0690781" />
    <text
       xml:space="preserve"
       style="font-style:normal;font-variant:normal;font-weight:normal;font-stretch:normal;font-size:5.09571314px;line-height:1.25;font-family:Arial;-inkscape-font-specification:'Arial, Normal';font-variant-ligatures:normal;font-variant-caps:normal;font-variant-numeric:normal;font-feature-settings:normal;text-align:start;letter-spacing:0px;word-spacing:0px;writing-mode:lr-tb;text-anchor:start;fill:#ff7f2a;fill-opacity:1;stroke:#ff7f2a;stroke-width:0.14194272;stroke-miterlimit:4;stroke-dasharray:none"
       x="57.655418"
       y="83.576454"
       id="text4489"
       transform="scale(1.0609697,0.94253398)"><tspan
         sodipodi:role="line"
         id="tspan4487"
         x="57.655418"
         y="83.576454"
         style="font-style:normal;font-variant:normal;font-weight:normal;font-stretch:normal;font-size:5.09571314px;font-family:Arial;-inkscape-font-specification:'Arial, Normal';font-variant-ligatures:normal;font-variant-caps:normal;font-variant-numeric:normal;font-feature-settings:normal;text-align:start;writing-mode:lr-tb;text-anchor:start;fill:#ff7f2a;stroke:#ff7f2a;stroke-width:0.14194272;stroke-miterlimit:4;stroke-dasharray:none">Sign in with mail</tspan></text>
    <g
       transform="matrix(0.21604667,0,0,0.21604667,19.998655,64.758853)"
       id="g6180">
      <path
         inkscape:connector-curvature="0"
         style="fill:#000000;fill-opacity:1;stroke:none;stroke-width:45.65437698;stroke-miterlimit:4;stroke-dasharray:none;stroke-opacity:1"
         d="m 524.70117,154.72266 a 58.358863,58.938724 0 0 0 -58.35937,58.93945 58.358863,58.938724 0 0 0 58.35937,58.93945 58.358863,58.938724 0 0 0 58.35742,-58.93945 58.358863,58.938724 0 0 0 -58.35742,-58.93945 z m 0.0762,52.21875 a 6.6737289,6.6737289 0 0 1 6.67383,6.67382 6.6737289,6.6737289 0 0 1 -6.67383,6.67383 6.6737289,6.6737289 0 0 1 -6.67382,-6.67383 6.6737289,6.6737289 0 0 1 6.67382,-6.67382 z"
         transform="scale(0.26458333)"
         id="path6176" />
      <path
         inkscape:connector-curvature="0"
         style="fill:#f07c00;fill-opacity:1;stroke:none;stroke-width:22.93945122;stroke-miterlimit:4;stroke-dasharray:none;stroke-opacity:1"
         d="m 524.7793,184.44141 a 29.730028,29.208779 0 0 0 -29.72852,29.20898 29.730028,29.208779 0 0 0 29.72852,29.20899 29.730028,29.208779 0 0 0 29.73047,-29.20899 29.730028,29.208779 0 0 0 -29.73047,-29.20898 z m -0.002,22.5 a 6.6737289,6.6737289 0 0 1 6.67383,6.67382 6.6737289,6.6737289 0 0 1 -6.67383,6.67383 6.6737289,6.6737289 0 0 1 -6.67382,-6.67383 6.6737289,6.6737289 0 0 1 6.67382,-6.67382 z"
         transform="scale(0.26458333)"
         id="path6178" />
    </g>
  </g>
</svg>
