<?xml version="1.0" encoding="UTF-8" standalone="no"?>
<svg width="36px" height="36px" viewBox="0 0 36 36" version="1.1" xmlns="http://www.w3.org/2000/svg" xmlns:xlink="http://www.w3.org/1999/xlink" xmlns:sketch="http://www.bohemiancoding.com/sketch/ns">
    <!-- Generator: Sketch 3.4.4 (17249) - http://www.bohemiancoding.com/sketch -->
    <title>server skills</title>
    <desc>Created with Sketch.</desc>
    <defs></defs>
    <g id="-Assets" stroke="none" stroke-width="1" fill="none" fill-rule="evenodd" sketch:type="MSPage">
        <g id="Desktop-HD" sketch:type="MSArtboardGroup" transform="translate(-517.000000, -784.000000)">
            <g id="CATEGORY-ICONS" sketch:type="MSLayerGroup" transform="translate(206.000000, 711.000000)">
                <g id="server-skills" transform="translate(311.000000, 73.000000)" sketch:type="MSShapeGroup">
                    <g id="Oval-175-+-Icon/Code-Copy-7" fill="#5C7BBA">
                        <path d="M18,36 C27.9411255,36 36,27.9411255 36,18 C36,8.0588745 27.9411255,0 18,0 C8.0588745,0 0,8.0588745 0,18 C0,27.9411255 8.0588745,36 18,36 Z" id="Oval-175"></path>
                    </g>
                    <g id="Page-1" transform="translate(8.000000, 10.000000)" fill="#FFFFFF">
                        <path d="M14.5350435,16.4691148 L6.46373913,16.4691148 C6.05834783,16.4691148 5.73026087,16.7875082 5.73026087,17.1805574 C5.73026087,17.5736066 6.05834783,17.8917049 6.46373913,17.8917049 L14.5350435,17.8917049 C14.9404348,17.8917049 15.2685217,17.5736066 15.2685217,17.1805574 C15.2685217,16.7875082 14.9404348,16.4691148 14.5350435,16.4691148 L14.5350435,16.4691148 Z" id="Fill-1"></path>
                        <path d="M19.396087,0.108295082 L1.60391304,0.108295082 C0.843956522,0.108295082 0.22826087,0.705540984 0.22826087,1.44206557 L0.22826087,13.7133443 C0.22826087,14.4498689 0.843956522,15.0468197 1.60391304,15.0468197 L19.396087,15.0468197 C20.1560435,15.0468197 20.7717391,14.4498689 20.7717391,13.7133443 L20.7717391,1.44206557 C20.7717391,0.705540984 20.1560435,0.108295082 19.396087,0.108295082 L19.396087,0.108295082 Z M19.3047826,12.2010492 L1.69643478,12.2010492 L1.69643478,1.53088525 L19.3047826,1.53088525 L19.3047826,12.2010492 Z" id="Fill-2"></path>
                    </g>
                </g>
            </g>
        </g>
    </g>
</svg>