<?xml version="1.0" encoding="UTF-8" standalone="no"?>
<svg
   xmlns:dc="http://purl.org/dc/elements/1.1/"
   xmlns:cc="http://creativecommons.org/ns#"
   xmlns:rdf="http://www.w3.org/1999/02/22-rdf-syntax-ns#"
   xmlns:svg="http://www.w3.org/2000/svg"
   xmlns="http://www.w3.org/2000/svg"
   xmlns:sodipodi="http://sodipodi.sourceforge.net/DTD/sodipodi-0.dtd"
   xmlns:inkscape="http://www.inkscape.org/namespaces/inkscape"
   id="svg8"
   version="1.1"
   viewBox="0 0 270.93334 132.29167"
   height="500"
   width="1024"
   sodipodi:docname="logo_svg.svg"
   inkscape:version="0.92.1 r15371"
   inkscape:export-filename="C:\Users\hhoareau\IdeaProjects\shifumixClient\src\assets\img\logo1024x500.png"
   inkscape:export-xdpi="96"
   inkscape:export-ydpi="96">
  <sodipodi:namedview
     pagecolor="#ffffff"
     bordercolor="#666666"
     borderopacity="1"
     objecttolerance="10"
     gridtolerance="10"
     guidetolerance="10"
     inkscape:pageopacity="0"
     inkscape:pageshadow="2"
     inkscape:window-width="1920"
     inkscape:window-height="1017"
     id="namedview9"
     showgrid="false"
     showguides="true"
     inkscape:guide-bbox="true"
     inkscape:zoom="0.39732667"
     inkscape:cx="457.58113"
     inkscape:cy="61.421735"
     inkscape:window-x="-8"
     inkscape:window-y="-8"
     inkscape:window-maximized="1"
     inkscape:current-layer="svg8">
    <sodipodi:guide
       position="138.84199,45.614754"
       orientation="1,0"
       id="guide4496"
       inkscape:locked="false" />
    <sodipodi:guide
       position="92.561326,54.604524"
       orientation="0,1"
       id="guide4498"
       inkscape:locked="false" />
  </sodipodi:namedview>
  <defs
     id="defs2" />
  <metadata
     id="metadata5">
    <rdf:RDF>
      <cc:Work
         rdf:about="">
        <dc:format>image/svg+xml</dc:format>
        <dc:type
           rdf:resource="http://purl.org/dc/dcmitype/StillImage" />
        <dc:title></dc:title>
      </cc:Work>
    </rdf:RDF>
  </metadata>
  <text
     xml:space="preserve"
     style="font-style:normal;font-variant:normal;font-weight:normal;font-stretch:normal;font-size:56.05675888px;line-height:1.25;font-family:Corbel;-inkscape-font-specification:'Corbel, Normal';font-variant-ligatures:normal;font-variant-caps:normal;font-variant-numeric:normal;font-feature-settings:normal;text-align:start;letter-spacing:0px;word-spacing:0px;writing-mode:lr-tb;text-anchor:start;fill:#000000;fill-opacity:1;stroke:#000000;stroke-width:1.40141892"
     x="7.6142864"
     y="136.66467"
     id="text4527"
     transform="scale(1.0656207,0.9384202)"><tspan
       sodipodi:role="line"
       id="tspan4525"
       x="7.6142864"
       y="136.66467"
       style="font-style:normal;font-variant:normal;font-weight:normal;font-stretch:normal;font-size:56.05675888px;font-family:Corbel;-inkscape-font-specification:'Corbel, Normal';font-variant-ligatures:normal;font-variant-caps:normal;font-variant-numeric:normal;font-feature-settings:normal;text-align:start;writing-mode:lr-tb;text-anchor:start;stroke:#000000;stroke-width:1.40141892">SHIFUMIX</tspan></text>
  <g
     id="g4571"
     transform="matrix(1.553874,0,0,1.553874,-1.561183,-3.6177538)">
    <g
       transform="matrix(1.7788748,0,0,1.7788748,-158.67846,-69.157722)"
       id="g4523">
      <path
         inkscape:connector-curvature="0"
         style="fill:#000000;fill-opacity:1;stroke:none;stroke-width:45.65437698;stroke-miterlimit:4;stroke-dasharray:none;stroke-opacity:1"
         d="m 524.70117,154.72266 a 58.358863,58.938724 0 0 0 -58.35937,58.93945 58.358863,58.938724 0 0 0 58.35937,58.93945 58.358863,58.938724 0 0 0 58.35742,-58.93945 58.358863,58.938724 0 0 0 -58.35742,-58.93945 z m 0.0762,52.21875 a 6.6737289,6.6737289 0 0 1 6.67383,6.67382 6.6737289,6.6737289 0 0 1 -6.67383,6.67383 6.6737289,6.6737289 0 0 1 -6.67382,-6.67383 6.6737289,6.6737289 0 0 1 6.67382,-6.67382 z"
         transform="scale(0.26458333)"
         id="path4486" />
      <path
         inkscape:connector-curvature="0"
         style="fill:#f07c00;fill-opacity:1;stroke:none;stroke-width:22.93945122;stroke-miterlimit:4;stroke-dasharray:none;stroke-opacity:1"
         d="m 524.7793,184.44141 a 29.730028,29.208779 0 0 0 -29.72852,29.20898 29.730028,29.208779 0 0 0 29.72852,29.20899 29.730028,29.208779 0 0 0 29.73047,-29.20899 29.730028,29.208779 0 0 0 -29.73047,-29.20898 z m -0.002,22.5 a 6.6737289,6.6737289 0 0 1 6.67383,6.67382 6.6737289,6.6737289 0 0 1 -6.67383,6.67383 6.6737289,6.6737289 0 0 1 -6.67382,-6.67383 6.6737289,6.6737289 0 0 1 6.67382,-6.67382 z"
         transform="scale(0.26458333)"
         id="ellipse4492" />
    </g>
    <g
       id="g4533"
       transform="matrix(1.7788748,0,0,1.7788748,-101.09457,-68.686853)">
      <path
         id="path4529"
         transform="scale(0.26458333)"
         d="m 524.70117,154.72266 a 58.358863,58.938724 0 0 0 -58.35937,58.93945 58.358863,58.938724 0 0 0 58.35937,58.93945 58.358863,58.938724 0 0 0 58.35742,-58.93945 58.358863,58.938724 0 0 0 -58.35742,-58.93945 z m 0.0762,52.21875 a 6.6737289,6.6737289 0 0 1 6.67383,6.67382 6.6737289,6.6737289 0 0 1 -6.67383,6.67383 6.6737289,6.6737289 0 0 1 -6.67382,-6.67383 6.6737289,6.6737289 0 0 1 6.67382,-6.67382 z"
         style="fill:#000000;fill-opacity:1;stroke:none;stroke-width:45.65437698;stroke-miterlimit:4;stroke-dasharray:none;stroke-opacity:1"
         inkscape:connector-curvature="0" />
      <path
         id="path4531"
         transform="scale(0.26458333)"
         d="m 524.7793,184.44141 a 29.730028,29.208779 0 0 0 -29.72852,29.20898 29.730028,29.208779 0 0 0 29.72852,29.20899 29.730028,29.208779 0 0 0 29.73047,-29.20899 29.730028,29.208779 0 0 0 -29.73047,-29.20898 z m -0.002,22.5 a 6.6737289,6.6737289 0 0 1 6.67383,6.67382 6.6737289,6.6737289 0 0 1 -6.67383,6.67383 6.6737289,6.6737289 0 0 1 -6.67382,-6.67383 6.6737289,6.6737289 0 0 1 6.67382,-6.67382 z"
         style="fill:#f07c00;fill-opacity:1;stroke:none;stroke-width:22.93945122;stroke-miterlimit:4;stroke-dasharray:none;stroke-opacity:1"
         inkscape:connector-curvature="0" />
    </g>
    <g
       transform="matrix(1.7788748,0,0,1.7788748,-215.51565,-68.979466)"
       id="g4539">
      <path
         inkscape:connector-curvature="0"
         style="fill:#000000;fill-opacity:1;stroke:none;stroke-width:45.65437698;stroke-miterlimit:4;stroke-dasharray:none;stroke-opacity:1"
         d="m 524.70117,154.72266 a 58.358863,58.938724 0 0 0 -58.35937,58.93945 58.358863,58.938724 0 0 0 58.35937,58.93945 58.358863,58.938724 0 0 0 58.35742,-58.93945 58.358863,58.938724 0 0 0 -58.35742,-58.93945 z m 0.0762,52.21875 a 6.6737289,6.6737289 0 0 1 6.67383,6.67382 6.6737289,6.6737289 0 0 1 -6.67383,6.67383 6.6737289,6.6737289 0 0 1 -6.67382,-6.67383 6.6737289,6.6737289 0 0 1 6.67382,-6.67382 z"
         transform="scale(0.26458333)"
         id="path4535" />
      <path
         inkscape:connector-curvature="0"
         style="fill:#f07c00;fill-opacity:1;stroke:none;stroke-width:22.93945122;stroke-miterlimit:4;stroke-dasharray:none;stroke-opacity:1"
         d="m 524.7793,184.44141 a 29.730028,29.208779 0 0 0 -29.72852,29.20898 29.730028,29.208779 0 0 0 29.72852,29.20899 29.730028,29.208779 0 0 0 29.73047,-29.20899 29.730028,29.208779 0 0 0 -29.73047,-29.20898 z m -0.002,22.5 a 6.6737289,6.6737289 0 0 1 6.67383,6.67382 6.6737289,6.6737289 0 0 1 -6.67383,6.67383 6.6737289,6.6737289 0 0 1 -6.67382,-6.67383 6.6737289,6.6737289 0 0 1 6.67382,-6.67382 z"
         transform="scale(0.26458333)"
         id="path4537" />
    </g>
  </g>
</svg>
