<?xml version="1.0" encoding="UTF-8" standalone="no"?>
<!-- Created with Inkscape (http://www.inkscape.org/) -->

<svg
   xmlns:dc="http://purl.org/dc/elements/1.1/"
   xmlns:cc="http://creativecommons.org/ns#"
   xmlns:rdf="http://www.w3.org/1999/02/22-rdf-syntax-ns#"
   xmlns:svg="http://www.w3.org/2000/svg"
   xmlns="http://www.w3.org/2000/svg"
   xmlns:xlink="http://www.w3.org/1999/xlink"
   xmlns:sodipodi="http://sodipodi.sourceforge.net/DTD/sodipodi-0.dtd"
   xmlns:inkscape="http://www.inkscape.org/namespaces/inkscape"
   id="svg3103"
   sodipodi:docname="party.svg"
   viewBox="0 0 638.08 323.64572"
   version="1.1"
   inkscape:version="0.92.1 r15371"
   width="638.08002"
   height="323.64572">
  <defs
     id="defs3107">
    <linearGradient
       id="linearGradient3952">
      <stop
         id="stop3954"
         style="stop-color:#000000"
         offset="0" />
      <stop
         id="stop3956"
         style="stop-color:#ffffff;stop-opacity:0"
         offset="1" />
    </linearGradient>
    <linearGradient
       id="linearGradient3968"
       y2="150.14999"
       xlink:href="#linearGradient3952"
       gradientUnits="userSpaceOnUse"
       x2="148.53999"
       gradientTransform="matrix(1.8963,0,0,1.8963,26.4335,-0.78025105)"
       y1="159.64999"
       x1="148.53999"
       inkscape:collect="always" />
    <linearGradient
       id="linearGradient4022"
       y2="53.189999"
       xlink:href="#linearGradient3952"
       gradientUnits="userSpaceOnUse"
       x2="94.012001"
       y1="53.189999"
       x1="-1.9450999"
       inkscape:collect="always"
       gradientTransform="matrix(3.3592009,0,0,7.6298583,253.32084,-23.080311)" />
    <linearGradient
       inkscape:collect="always"
       xlink:href="#linearGradient3952"
       id="linearGradient4518"
       gradientUnits="userSpaceOnUse"
       x1="-1.9450999"
       y1="53.189999"
       x2="94.012001"
       y2="53.189999"
       gradientTransform="matrix(3.3592171,0,0,7.6299094,150.94213,30.109354)" />
    <linearGradient
       inkscape:collect="always"
       xlink:href="#linearGradient3952"
       id="linearGradient4520"
       gradientUnits="userSpaceOnUse"
       x1="-1.9450999"
       y1="53.189999"
       x2="94.012001"
       y2="53.189999"
       gradientTransform="matrix(3.3592171,0,0,7.6299094,-423.08857,-261.15176)" />
    <linearGradient
       inkscape:collect="always"
       xlink:href="#linearGradient3952"
       id="linearGradient4522"
       gradientUnits="userSpaceOnUse"
       x1="-1.9450999"
       y1="53.189999"
       x2="94.012001"
       y2="53.189999"
       gradientTransform="matrix(3.3592421,0,0,7.629869,-432.75017,-479.1202)" />
    <linearGradient
       inkscape:collect="always"
       xlink:href="#linearGradient3952"
       id="linearGradient4524"
       gradientUnits="userSpaceOnUse"
       x1="-1.9450999"
       y1="53.189999"
       x2="94.012001"
       y2="53.189999"
       gradientTransform="matrix(3.3592421,0,0,7.629869,-68.610994,51.190891)" />
    <linearGradient
       inkscape:collect="always"
       xlink:href="#linearGradient3952"
       id="linearGradient4526"
       gradientUnits="userSpaceOnUse"
       x1="-1.9450999"
       y1="53.189999"
       x2="94.012001"
       y2="53.189999"
       gradientTransform="matrix(3.3725027,0,0,17.133614,-326.15552,-582.29676)" />
    <linearGradient
       inkscape:collect="always"
       xlink:href="#linearGradient3952"
       id="linearGradient4528"
       gradientUnits="userSpaceOnUse"
       x1="-1.9450999"
       y1="53.189999"
       x2="94.012001"
       y2="53.189999"
       gradientTransform="matrix(3.359203,0,0,7.6298576,-352.03128,-119.20664)" />
  </defs>
  <sodipodi:namedview
     id="namedview3105"
     fit-margin-left="0"
     inkscape:zoom="1.1789699"
     borderopacity="1"
     inkscape:current-layer="svg3103"
     inkscape:cx="337.65774"
     inkscape:cy="94.917797"
     inkscape:window-maximized="1"
     showgrid="false"
     fit-margin-right="0"
     bordercolor="#666666"
     inkscape:window-x="1912"
     guidetolerance="10"
     objecttolerance="10"
     inkscape:window-y="-8"
     fit-margin-bottom="0"
     inkscape:window-width="1920"
     inkscape:pageopacity="0"
     inkscape:pageshadow="2"
     pagecolor="#ffffff"
     gridtolerance="10"
     inkscape:window-height="1017"
     fit-margin-top="0" />
  <path
     id="path4030"
     sodipodi:rx="322.33936"
     sodipodi:ry="732.14087"
     style="fill:url(#linearGradient4518);stroke-width:5.06265974"
     sodipodi:type="arc"
     d="m 466.74757,418.70312 a 322.33936,732.14087 0 0 1 -0.35765,34.47959 l -321.9817,-34.47959 z"
     transform="matrix(0.8930057,-0.45004534,0.46182724,0.8869699,0,0)"
     sodipodi:cy="418.70312"
     sodipodi:cx="144.40822"
     sodipodi:end="0.047111627"
     sodipodi:start="0" />
  <path
     id="path4056"
     sodipodi:rx="322.33936"
     sodipodi:ry="732.14087"
     style="fill:url(#linearGradient4520);stroke-width:5.06265974"
     sodipodi:type="arc"
     d="m -107.28311,127.442 a 322.33936,732.14087 0 0 1 -0.35765,34.47959 L -429.62247,127.442 Z"
     transform="matrix(-0.8930057,-0.45004534,-0.46182724,0.8869699,0,0)"
     sodipodi:cy="127.442"
     sodipodi:cx="-429.62247"
     sodipodi:end="0.047111627"
     sodipodi:start="0" />
  <path
     id="path4058"
     sodipodi:rx="322.34177"
     sodipodi:ry="732.13702"
     style="fill:url(#linearGradient4522);stroke-width:5.06266499"
     sodipodi:type="arc"
     d="m -116.94235,-90.528496 a 322.34177,732.13702 0 0 1 -0.35766,34.479409 l -321.98411,-34.479409 z"
     transform="matrix(-0.57188494,-0.82033384,-0.82783859,0.56096638,0,0)"
     sodipodi:cy="-90.528496"
     sodipodi:cx="-439.28412"
     sodipodi:end="0.047111627"
     sodipodi:start="0" />
  <path
     id="path4060"
     sodipodi:rx="322.34177"
     sodipodi:ry="732.13702"
     style="fill:url(#linearGradient4524);stroke-width:5.06266499"
     sodipodi:type="arc"
     d="M 247.19682,439.78259 A 322.34177,732.13702 0 0 1 246.83916,474.262 L -75.144951,439.78259 Z"
     transform="matrix(0.57188494,-0.82033384,0.82783859,0.56096638,0,0)"
     sodipodi:cy="439.78259"
     sodipodi:cx="-75.144951"
     sodipodi:end="0.047111627"
     sodipodi:start="0" />
  <path
     id="path4062"
     sodipodi:rx="323.61423"
     sodipodi:ry="1644.085"
     style="fill:url(#linearGradient4526);stroke-width:7.6015234"
     sodipodi:type="arc"
     d="M -9.1010437,290.32376 A 323.61423,1644.085 0 0 1 -9.460109,367.75063 L -332.71527,290.32376 Z"
     transform="matrix(-0.09910444,-0.99507704,0.99967233,-0.02559763,0,0)"
     sodipodi:cy="290.32376"
     sodipodi:cx="-332.71527"
     sodipodi:end="0.047111627"
     sodipodi:start="0" />
  <path
     id="path4064"
     sodipodi:rx="322.33801"
     sodipodi:ry="732.13593"
     style="fill:url(#linearGradient4528);stroke-width:5.06263161"
     sodipodi:type="arc"
     d="m -36.227142,269.38449 a 322.33801,732.13593 0 0 1 -0.35765,34.47936 L -358.56516,269.38449 Z"
     transform="matrix(-0.99487885,-0.10107457,-0.11424722,0.99345235,0,0)"
     sodipodi:cy="269.38449"
     sodipodi:cx="-358.56516"
     sodipodi:end="0.047111627"
     sodipodi:start="0" />
  <path
     id="path4066"
     sodipodi:rx="322.33783"
     sodipodi:ry="732.13599"
     style="fill:url(#linearGradient4022);stroke-width:5.06263065"
     sodipodi:type="arc"
     d="m 569.1248,365.51083 a 322.33783,732.13599 0 0 1 -0.35765,34.47936 L 246.78697,365.51083 Z"
     transform="matrix(0.98460916,-0.17477073,0.18780165,0.98220697,0,0)"
     sodipodi:cy="365.51083"
     sodipodi:cx="246.78697"
     sodipodi:end="0.047111627"
     sodipodi:start="0" />
  <rect
     id="rect3950"
     style="fill:url(#linearGradient3968)"
     height="18.462"
     width="638.08002"
     y="283.92529"
     x="0" />
  <path
     id="path3113"
     sodipodi:nodetypes="ccsscccccccccccccccccccccccccccccssccccccccccc"
     style="fill:#000000;stroke:#000000;stroke-width:0.2"
     inkscape:connector-curvature="0"
     d="m 96.0915,136.03529 -2.3703,8.0591 c -3.0335,5.9753 -9.9284,12.751 -12.995,18.809 -0.54993,1.0865 -1.6078,-0.16393 -1.8176,1.049 -0.75776,4.3798 -0.76919,8.7969 -0.6102,15.106 0.47412,11.978 2.4825,20.999 9.0821,26.723 l 0.65184,23.703 c -3.5261,4.6278 -7.2009,9.1936 -7.348,15.229 -0.38272,3.9606 -0.85717,11.935 0.29781,11.812 -0.76602,3.4884 -0.89065,5.3496 -0.94965,8.1578 -0.49073,9.6429 1.2704,17.39 6.2813,22.399 0.52954,1.7326 1.4418,2.03 0.88887,7.822 l -3.2592,15.407 13.037,1.5407 -4.148,-15.644 c -0.59025,-10.229 -0.34752,-19.803 -4.7999,-33.066 2.9115,-3.3766 2.9884,-6.3302 4.3693,-5.6973 0.59099,-0.42751 4.2112,-10.405 3.9268,-13.384 0.97737,-1.1215 2.6045,-1.2684 4.7406,-0.65183 l -0.0691,14.232 3.585,1.1954 c 1.6279,18.576 1.9067,35.15 1.521,51.712 l 7.822,0.65184 c -0.58868,-17.66 -1.5762,-35.08 -0.79989,-53.559 l 3.1702,-1.6694 c -1.1636,-10.429 1.1811,-19.395 -3.4962,-31.288 -2.1424,-5.7381 -5.9957,-10.278 0.14789,-21.817 1.7309,-8.7374 3.7187,-18.709 3.6167,-29.777 l -1.5256,-0.43386 0.60541,-9.4824 -16.711,-26.903 z m 4.3648,7.0807 c 7.6603,8.9194 9.6113,19.325 9.636,28.775 0.002,0.64491 -1.2548,-0.0382 -1.3502,0.56776 -0.33283,2.1132 -0.50272,6.5788 -0.46563,8.7165 l -4.4983,-2.2468 0.37242,-4.6714 c 4.5202,-19.276 -24.567,-13.414 -10.666,6.3406 l -0.65183,4.5629 c -2.0284,-0.30079 -4.2002,-1.8911 -6.5184,-4.7999 0.046,-4.0514 -0.1867,-8.0522 -0.12854,-10.878 0.45934,-3.0898 1.3302,-5.1244 0.63927,-5.2986 1.2301,-3.0941 5.2491,-10.769 8.3087,-15.419 l 4.3063,-1.5203 c 1.3494,-0.82726 1.1093,-2.725 1.0167,-4.1291 z" />
  <path
     id="path3886"
     sodipodi:nodetypes="ccccccccccccccccccsccccccccccccccccccccccccccccccccccc"
     style="fill:#000000;stroke:#000000;stroke-width:0.2"
     inkscape:connector-curvature="0"
     d="m 128.6075,87.107289 2.8604,8.5858 c 3.094,0.70833 7.2637,-2.0107 6.6693,2.6322 0.67505,2.170001 -1.2925,4.163801 2.1779,6.520101 6.2518,5.6323 9.7404,11.572 14.344,17.387 0.83135,-1.9822 1.196,-3.1829 1.6355,-6.9284 0.77711,-2.858 -4.0398,-0.97663 -3.4751,-13.679 0.20565,-5.422001 3.9102,-10.032001 6.1096,-10.048001 8.3782,-1.2785 13.637,2.6194 14.573,5.4202 2.3534,4.015601 4.7068,8.603401 7.0603,11.093001 l 1.5777,1.6929 c 1.1869,1.2537 1.9629,2.7902 3.3815,5.06 l 0.65162,0.88066 1.0871,2.1621 1.2331,3.2628 3.983,10.647 9.1282,-9.5628 c -2.1294,-2.0881 -3.2823,-4.7187 -7.0776,-5.8813 -3.2001,-2.1613 1.6643,-1.5878 5.8943,1.3558 1.0232,0.71204 2.2164,-1.1084 2.922,-1.1253 0.0681,-3.8854 -1.0579,-11.651 0.46332,-10.814 2.1173,1.9462 1.2589,6.6936 2.1184,8.8494 1.1826,-1.8504 2.446,-2.5975 3.2228,-7.2885 1.5766,0.13499 0.70178,3.3314 1.405,5.8527 l 2.5289,-2.3798 c 2.3472,0.26803 -2.4626,4.1601 -1.0449,5.7804 l 2.3994,0.27873 c 0.63974,1.0662 -3.0413,2.1324 -4.5728,3.1987 -1.4499,1.9685 -2.2062,3.9369 -4.9615,5.9054 -12.24,12.463 -13.597,15.131 -13.73,16.698 -6.4774,23.206 -1.6029,33.974 -1.7387,34.774 1.3432,4.5544 5.2012,11.192 3.4774,20.864 l -0.30907,8.6538 -1.0566,0.0776 c -0.89111,27.592 -3.2016,24.985 -7.5584,31.895 -0.9971,16.181 -0.39144,32.311 0.23053,48.482 1.8231,7.747 3.4816,17.057 6.0854,17.387 l -17.822,2.608 c 1.6118,-3.5249 3.411,-6.3379 3.0427,-17.387 -3.4755,-14.448 -3.8976,-17.783 -4.8515,-26.955 -9.8069,7.4661 -10.396,12.51 -15.144,19.131 l 5.6508,19.56 -13.91,-0.43468 c 2.6172,-10.418 -2.7246,-15.801 -5.1415,-24.443 7.5651,-19.89 19.234,-32.394 30.787,-45.105 -3.4782,-7.564 -6.9967,-15.229 -11.279,-24.802 l -2.1772,-0.0611 c -7.5586,-24.046 -1.4742,-25.862 1.2849,-39.903 1.655,-7.4128 2.9279,-12.781 1.4622,-17.764 -1.6683,-2.6781 -3.404,-4.8165 -4.6799,-10.633 -9.2756,-13.992 -17.713,-24.499 -27.644,-35.5 -7.8296,-0.38478 -8.6789,-2.2358 -4.3468,-8.693501 l 0.97482,-7.0294 c -0.99172,-2.8402 0.0156,-5.1082 2.0965,-0.27647 z" />
  <path
     id="path3888"
     sodipodi:nodetypes="cccccccccccccccccccccccccccccccssscccccccsscccccc"
     style="fill:#000000;stroke:#000000;stroke-width:0.2"
     inkscape:connector-curvature="0"
     d="m 375.0375,129.18529 c 3.816,-1.5036 8.1958,-1.6785 7.8242,6.5201 -0.2584,1.8935 -6.1744,0.51924 -10.432,15.214 l -2.1492,7.6418 8.6694,11.919 3.9121,6.0854 c 1.1716,0.47205 2.297,0.80562 3.0427,0 0.80475,-0.99855 1.2507,-1.1244 1.41,-3.4137 -8.6208,-7.547 -2.2929,-20.418 6.4141,-20.059 11.8,0.35416 9.7391,18.873 1.3396,21.327 0.45471,2.5108 1.4896,3.3188 3.4418,5.1877 l 9.1282,0.43467 7.8241,16.083 9.1282,21.299 0.86936,13.04 -5.2161,-2.1734 1.7387,-6.0854 -3.0427,-9.1282 -13.04,-18.256 3.4774,38.686 2.608,21.299 -4.7814,0.86935 c 2.0797,6.5641 4.1594,11.914 6.2391,20.311 0.56645,7.7949 0.73787,14.8 0.28101,20.548 l 5.2161,14.344 -6.5201,-0.86935 -4.8824,-14.472 c -0.9285,-5.6718 -2.1402,-10.211 -2.5071,-18.129 -2.6841,-3.9362 -4.5363,-13.488 -6.424,-22.8 l -2.1284,-1.3901 -1.0058,-10.861 c -0.85384,-2.4094 -4.8934,-2.5277 -6.6554,-1.0599 -3.3022,2.7508 -7.6854,6.7653 -12.367,10.064 -0.50285,0.35432 -1.3136,-0.62157 -1.8188,-0.30516 -2.7391,1.7155 -5.2253,4.3254 -8.287,6.7916 -0.53131,7.5948 -2.0822,16.307 -3.5038,23.014 l 2.9395,7.4159 -0.73976,12.169 -9.5628,2.608 2.1734,-14.779 c -0.1897,-6.6269 -3.9187,-20.908 -1.5586,-26.025 1.4364,-3.6264 3.5301,-8.3091 7.4736,-16.026 0.3721,-0.72818 -1.6416,-0.48846 -0.98326,-1.2965 1.3969,-1.7145 2.3115,-2.6755 4.3984,-5.1795 2.0989,-3.3515 3.5512,-7.7278 15.446,-17.543 3.9372,-19.521 -5.9514,-27.613 -13.04,-43.902 -10.086,-19.424 -7.8633,-16.628 -4.6692,-23.692 l 3.3651,-7.6042 c 7.6203,-14.236 5.0976,-16.401 6.9548,-17.822 z" />
  <path
     id="path3890"
     sodipodi:nodetypes="cccccccccccccccccccccccccccccccccccccccccccccccc"
     inkscape:connector-curvature="0"
     style="fill:#000000;stroke:#000000;stroke-width:0.2"
     d="m 451.7075,94.148289 c -0.40485,0.0125 -1.1412,0.6373 -4.9184,6.340601 -1.0744,1.9679 -5.9481,-0.23001 -5.8665,3.3777 0.80333,11.174 -0.1646,19.453 -0.65184,28.562 0.98169,9.5415 0.70698,21.054 3.0222,28.503 0.54859,15.448 -5.9714,23.159 -5.6295,37.807 3.4864,31.473 0.74409,57.478 -0.35555,85.983 l 2.3111,0.59258 2.2518,5.985 c 7.8277,19.874 -1.8492,14.613 -2.9036,21.748 l 34.725,-2.1925 -1.3037,-6.5184 -9.5405,-9.9553 0.17768,-5.0369 c 1.1778,-0.0546 2.7035,0.12211 2.9036,-0.7111 0.61596,-2.5643 -0.18811,-7.0442 0.41481,-9.8961 -0.34155,-9.7664 1.6248,-16.907 5.6295,-21.748 3.2068,-4.3638 5.091,-10.093 7.5258,-15.229 0.75717,-4.9403 1.7785,-8.9036 -4.5036,-36.088 -1.4905,-12.592 -3.2067,-29.196 1.8962,-43.495 1.4324,-3.988 0.90527,-5.6416 6.7554,-3.3777 l 10.489,2.9629 c 10.837,3.4915 8.4616,-3.8719 5.2147,-20.385 -1.4593,-2.4632 -3.7989,-4.4999 -4.5629,-5.985 -2.7461,-2.106 -3.049,-6.0362 -4.3258,-9.2442 -1.2325,-0.0705 0.55171,8.6017 1.6,10.074 0.25419,1.6164 -0.12306,1.9331 -1.3037,1.5407 -3.2806,-2.269 -5.8969,-3.6027 -6.9332,-2.6074 -0.68022,0.57568 6.921,4.1375 9.0072,7.9406 l 1.7185,9.1257 -3.0222,-0.88887 -6.5184,-7.348 -10.015,-1.7777 c -0.42406,-5.5016 1.0991,-9.7993 3.0814,-14.755 0.84252,-2.1159 0.008,-5.2097 0,-7.822 0.17782,-3.1072 -0.52207,-7.4538 -3.4962,-9.1257 -3.7383,-1.1213 -7.4915,-2.1744 -12.148,0.88887 -4.4123,5.716 -3.8094,6.4167 -5.2147,9.1257 -1.6596,2.3891 -3.4227,4.5273 -6.5184,3.437 l -1.3037,-14.34 2.4888,-1.837 c 7.5237,-7.6287 0.37897,-2.1033 -2.1925,-2.6074 -1.0002,-2.2209 0.51429,-6.456901 2.3703,-10.963001 -0.15587,0.0393 -0.22059,-0.0634 -0.35555,-0.0593 z m 5.0962,132.320001 c 4.5645,3.64 6.7528,13.299 -1.1852,19.851 z" />
  <path
     id="path3892"
     sodipodi:nodetypes="cccscccccccccccccccccsccccccccccccccccccccccc"
     style="fill:#000000;stroke:#000000;stroke-width:0.2"
     inkscape:connector-curvature="0"
     d="m 307.6675,120.05529 -0.10866,-5.1074 c -8.2242,-35.990001 38.514,-15.343001 11.845,4.4554 -1.0149,1.3281 -1.6742,3.399 -1.6766,4.1289 -0.004,1.2048 1.1895,2.5561 2.9807,4.3473 15.08,5.9096 16.251,16.255 22.603,28.254 l -4.6728,1.0867 c 3.1346,8.3877 5.5266,18.064 6.4115,26.732 5.033,9.2556 4.6141,9.8216 2.282,16.844 -1.2941,1.2812 -2.637,2.7507 -1.956,-3.5861 1.7613,-4.4212 -0.39453,-5.6375 -1.63,-7.6068 -4.4272,3.3212 -4.51,1.8512 -2.1734,-3.0427 0.49266,-9.5656 -4.4334,-15.52 -9.5387,-23.512 l -1.8596,0.46412 c -1.6513,-3.0635 -3.2151,-6.2801 -5.9886,-7.3798 v 28.689 c 4.5227,11.453 6.2906,23.629 8.6935,35.643 2.0828,19.711 5.7014,39.175 9.1282,58.681 l 4.3468,30.862 -15.214,5.2161 -5.6508,-24.776 c -5.5412,-23.717 -10.747,-51.206 -16.37,-75.07 -0.36059,-1.5303 -4.6474,-1.5372 -4.6032,2.6963 -1.5448,22.621 -10.406,52.779 -6.8462,61.506 l 6.5201,33.144 -26.515,2.4994 c -3.8915,-35.626 1.5372,-71.026 4.7814,-106.5 v -16.083 l 2.608,-0.65203 0.43468,-6.3028 h -4.3468 c 4.7998,-50.144 2.7885,-48.827 -4.7814,-74.329 l -2.1534,-5.4382 3.0228,-2.6033 c -0.77505,-13.174001 0.16915,-18.723001 2.608,-25.102001 l 0.94204,-11.732 c -0.83221,-7.2584 1.2096,-10.638 2.318,1.0821 3.4635,-10.793 6.2821,-12.794 3.2057,-0.48901 9.2229,-11.201 9.6023,-9.0044 2.445,1.304 14.116,-8.3737 8.4976,-2.3034 -0.70634,4.4011 10.633,-2.9095 10.924,0.26908 -1.7871,4.6238 -3.6553,1.0533 -1.5576,15.296 -0.658,22.326 l 3.8034,-1.304 c 5.0277,8.592401 9.3875,12.424001 12.606,21.734001 2.2111,1.1268 3.4152,0.6099 5.6508,-0.10868 z" />
  <path
     id="path3894"
     sodipodi:nodetypes="cccccccccccccccccccccccccccccccccccccccccccccccccccsscsssccssscccccc"
     style="fill:#000000;stroke:#000000;stroke-width:0.2;stroke-linejoin:round"
     inkscape:connector-curvature="0"
     d="m 544.9975,177.43529 c 4.3514,-2.0477 12.827,-2.1618 15.322,5.7051 0.40851,1.9569 -0.54185,4.3953 -1.4127,6.6288 2.8254,-0.48904 4.2338,-1.1574 7.3351,-2.3364 2.2846,-3.8864 4.9758,-7.6168 10.052,-10.432 4.4455,-3.0581 6.7514,-6.8294 9.5628,-10.432 l 0.25084,-8.6286 c 0.47784,-1.0653 0.68402,1.8402 0.9445,2.6518 0.0362,0.54334 0.12686,3.4646 0.16308,2.282 0.94542,-0.7896 1.5587,-0.58285 2.2277,-0.54334 0.28986,2.9703 -1.084,5.3317 -2.4994,7.1721 -8.7184,8.9501 -13.565,16.011 -20.81,23.472 -4.3789,4.9722 -4.54,5.4615 -5.0531,9.3455 l -2.119,0.54334 0.0495,5.7448 c 2.17,2.5894 2.7773,7.4491 -0.97325,10.501 l -1.304,1.793 c -6.4274,7.9745 -9.5384,14.303 -8.8022,17.55 4.1788,4.2879 9.5075,8.2787 13.584,11.573 7.223,10.503 8.3657,15.377 7.8241,18.691 -3.593,26.165 -2.3508,18.484 -2.608,21.299 l -2.1734,1.7387 1.304,5.2161 7.2265,3.8034 c -8.4477,2.276 -8.4594,2.7761 -12.008,4.0208 0.15075,-4.3434 1.2414,-8.1497 0.43468,-13.04 l -3.9121,-2.1734 1.304,-4.3468 c -0.39889,-9.1111 -0.19203,-15.377 0.16308,-18.256 -1.8805,-2.6174 -4.0784,-3.9016 -6.6831,-3.4774 1.1483,4.9436 3.173,11.421 2.1734,12.606 -1.2599,2.3255 -1.7806,4.0255 -4.7814,7.8241 -4.7812,0.86936 -5.1512,1.7387 -6.5201,2.608 l -0.86934,4.3467 c -4.1092,-0.39587 -2.3091,-1.8266 -5.2161,1.7387 l -2.1734,2.608 6.5201,10.867 c -0.45279,1.4489 -16.103,-5.7913 -15.214,-13.421 2.0714,-0.88538 3.4091,-0.11434 5.2161,-1.793 3.8764,-1.0956 1.1552,-2.1698 3.0971,-9.2368 l 2.5537,-3.3687 7.3895,-5.6508 c -6.8378,-14.308 -9.5186,-19.772 -14.779,-27.819 -2.6428,-8.2532 5.7258,-14.878 7.9328,-19.343 1.4208,-1.9088 2.2327,-6.3483 1.1954,-18.474 -2.8855,-0.25218 -5.3042,2.2971 -7.9328,3.5861 -2.6008,0.85637 -5.3008,-3.2003 -5.321,-4.3318 0.25535,-2.6564 0.59061,-5.4992 0.43091,-7.1871 -2.1758,-10.64 -0.002,-9.4651 -8.2071,-9.33 -1.6121,-0.5765 -4.3759,-2.5633 -4.1811,-2.8409 0.74272,0.11529 3.6948,1.1954 3.6948,1.1954 0,0 0.3841,-0.42085 -0.0628,-0.75057 -1.4637,-1.08 -3.0255,-3.061 -2.7627,-4.5358 0.0559,-0.31385 3.2058,4.3663 3.5926,2.7442 0,0 0.2165,0.006 0.2977,-0.90686 0.0504,-0.56736 -0.17711,-1.1824 -0.30873,-1.8539 -0.13539,-0.69032 -0.44824,-1.9373 0.0573,-2.552 0.83879,-1.02 0.27509,1.3577 1.1447,3.03 1.0385,1.3128 2.7851,1.5082 3.5509,1.7706 1.3803,0.48233 2.5217,-0.58431 3.4602,-1.6356 0.76654,-0.85862 0.74769,-1.9807 1.2601,-2.0388 0.44953,-0.051 0.35724,1.8898 -0.0521,2.3283 -0.93345,0.99955 -2.1477,1.9591 -2.1477,1.9591 1.205,2.8835 2.4703,4.4767 2.6201,4.8319 0.84138,5.2238 1.5077,14.124 2.608,13.91 l 6.0854,-3.4774 c 0.83307,-16.969 2.6343,-17.205 8.2587,-23.472 z" />
  <path
     id="path3896"
     sodipodi:nodetypes="cccscscccccccccccccccccccccccsccsssccccccccccc"
     style="fill:#000000;stroke:#000000;stroke-width:0.2;stroke-linejoin:round"
     inkscape:connector-curvature="0"
     d="m 245.5075,197.43529 c 2.7344,-1.5558 13.006,-8.8646 8.2588,-18.691 -0.61513,-2.2619 -2.9118,-3.6249 -4.7814,-5.2161 0.46403,-0.20348 3.6115,1.8799 5.5806,3.403 0.89945,0.69573 2.0027,-1.1254 2.193,-2.3008 0.59027,-0.92967 -0.15682,2.5862 0.62027,3.1454 0.61336,0.44141 2.9138,-1.9435 3.3423,-1.6395 l -2.764,2.889 c -1.568,5.6264 1.8925,12.596 -3.2687,17.025 l -9.642,8.6212 0.34652,2.318 c 2.2028,0.27655 7.9809,5.3907 -0.38311,12.086 -2.0932,1.4912 -2.0438,3.158 -2.6988,5.7188 4.19,10.631 9.8002,15.715 5.8045,36.104 -8.2582,12.329 -7.1352,23.539 -7.8242,36.947 l -1.304,4.7814 -3.0427,-1.304 c -1.1772,-14.965 3.3787,-42.541 4.3467,-43.033 -2.2175,-9.7617 -4.6793,-5.3216 -7.8242,1.7387 -0.25929,11.743 -0.80471,23.475 -1.304,35.209 l -0.86933,12.606 -4.7814,-0.86936 c 0.30987,-8.8263 1.2898,-12.418 0.86936,-26.95 -2.0673,-28.986 0.20246,-38.428 1.7387,-48.684 -3.2252,-14.525 -6.5445,-12.341 -6.4169,-20.302 l -8.7967,3.6597 c -4.3314,0.80638 -7.1326,-0.86162 -1.7387,-5.5257 1.4316,-1.224 3.4246,-3.4772 6.0854,-6.9548 -0.18829,-2.0802 -0.04,-4.3497 -2.5174,-6.3221 0.40434,-0.84201 1.2005,-0.71039 1.2166,-1.7296 0.019,-1.1739 -0.75983,-3.5304 -0.43781,-4.9886 0.67344,0.63713 0.80024,2.7838 1.4694,3.9013 0.16308,0.17047 0.65413,0.0747 1.2589,-0.17825 1.2098,-0.50571 -0.44721,-4.3119 0.50365,-4.6659 1.0156,-0.37807 0.60632,3.6127 1.2017,4.8189 0.36093,0.73119 1.1083,0.008 1.2846,-0.32254 0.23889,-1.346 -0.72274,-4.5645 -0.50214,-5.727 0.0722,-0.14317 0.71409,-1.7008 1.7387,4.3467 0.62984,1.5057 0.38139,3.5384 0,5.6508 -1.9744,4.4804 -2.0252,6.3024 -2.1734,8.2588 1.4184,-0.008 2.7413,1.3218 4.3468,-1.304 0.65768,-1.7875 -0.88996,-2.1967 -1.7387,-3.0427 2.9521,-3.2442 2.9657,-6.6892 3.5038,-10.867 4.0416,-11.605 20.783,-8.98 15.699,3.3305 l 1.5104,2.1357 z" />
  <metadata
     id="metadata40">
    <rdf:RDF>
      <cc:Work>
        <dc:format>image/svg+xml</dc:format>
        <dc:type
           rdf:resource="http://purl.org/dc/dcmitype/StillImage" />
        <cc:license
           rdf:resource="http://creativecommons.org/publicdomain/zero/1.0/" />
        <dc:publisher>
          <cc:Agent
             rdf:about="http://openclipart.org/">
            <dc:title>Openclipart</dc:title>
          </cc:Agent>
        </dc:publisher>
        <dc:title></dc:title>
      </cc:Work>
      <cc:License
         rdf:about="http://creativecommons.org/publicdomain/zero/1.0/">
        <cc:permits
           rdf:resource="http://creativecommons.org/ns#Reproduction" />
        <cc:permits
           rdf:resource="http://creativecommons.org/ns#Distribution" />
        <cc:permits
           rdf:resource="http://creativecommons.org/ns#DerivativeWorks" />
      </cc:License>
    </rdf:RDF>
  </metadata>
</svg>
