<?xml version="1.0"?><svg width="640" height="480" xmlns="http://www.w3.org/2000/svg">
 <title>power_button</title>
 <g>
  <title>Layer 1</title>
  <g id="layer1">
   <path fill="#f78f20" fill-rule="evenodd" stroke-width="3.805844" stroke-linecap="round" stroke-linejoin="round" stroke-miterlimit="4" stroke-dasharray="7.6116890 7.6116890 " stroke-dashoffset="0" stroke-opacity="0.841176" marker-start="none" marker-mid="none" marker-end="none" id="path8" d="m336.060455,445.3125c-106.237183,0 -192.466721,-86.231049 -192.466721,-192.466705c0,-52.912354 21.476517,-100.759232 56.080688,-135.544144l0.162933,0.162949c6.995544,-9.657806 18.29451,-15.995926 31.122742,-15.995895c21.247147,0 38.509628,17.235245 38.509628,38.482468c0,13.028839 -6.51535,24.510452 -16.430389,31.4758l0.135773,0.135788c-20.792725,20.941116 -33.811356,49.533493 -33.811356,81.283035c0,64.04953 52.238785,116.044891 116.588058,116.044891c64.349274,0 116.560913,-51.995361 116.560913,-116.044891c0,-28.976273 -10.898163,-55.25383 -28.597076,-75.552765c-10.528229,-6.871185 -17.543884,-18.707809 -17.543884,-32.209045c0,-21.247223 17.262512,-38.509659 38.509644,-38.509628c10.387329,0 19.769348,4.194534 26.696014,10.890244l0.543182,-0.543167c34.807129,34.811234 56.379395,82.836685 56.379395,135.924362c0,106.235657 -86.202362,192.466705 -192.439545,192.466705zm-0.027161,-191.135986c-21.324158,0 -38.482483,-17.469879 -38.482483,-39.188568l0,-155.260651c0,-21.718689 17.158325,-39.18858 38.482483,-39.18858c21.324158,0 38.509644,17.46986 38.509644,39.18858l0,155.260651c0,21.718689 -17.185516,39.188568 -38.509644,39.188568z"/>
  </g>
 </g>
</svg>